<?xml version="1.0" encoding="UTF-8" standalone="no"?>
<!-- Created with Inkscape (http://www.inkscape.org/) -->

<svg
   version="1.1"
   id="svg1"
   width="431.89725"
   height="437.17343"
   viewBox="0 0 431.89725 437.17343"
   sodipodi:docname="fonter.svg"
   xml:space="preserve"
   inkscape:version="1.4.4 (dcaf3e7d9e, 2026-05-05)"
   xmlns:inkscape="http://www.inkscape.org/namespaces/inkscape"
   xmlns:sodipodi="http://sodipodi.sourceforge.net/DTD/sodipodi-0.dtd"
   xmlns="http://www.w3.org/2000/svg"
   xmlns:svg="http://www.w3.org/2000/svg"><defs
     id="defs1"><clipPath
       clipPathUnits="userSpaceOnUse"
       id="clipPath4088"><rect
         style="fill:#000000"
         id="rect4089"
         width="708.52246"
         height="660.28265"
         x="480.89078"
         y="55.777302" /></clipPath><clipPath
       clipPathUnits="userSpaceOnUse"
       id="clipPath4321"><rect
         style="fill:#186a22;fill-opacity:0.297786;stroke-width:1.00259"
         id="rect4322"
         width="431.89725"
         height="437.17343"
         x="260.7966"
         y="123.61456"
         ry="50.501072" /></clipPath></defs><sodipodi:namedview
     id="namedview1"
     pagecolor="#ffffff"
     bordercolor="#000000"
     borderopacity="0.25"
     inkscape:showpageshadow="2"
     inkscape:pageopacity="0.0"
     inkscape:pagecheckerboard="0"
     inkscape:deskcolor="#d1d1d1"
     inkscape:zoom="0.25"
     inkscape:cx="-220"
     inkscape:cy="896"
     inkscape:window-width="1920"
     inkscape:window-height="992"
     inkscape:window-x="0"
     inkscape:window-y="0"
     inkscape:window-maximized="1"
     inkscape:current-layer="g1" /><g
     inkscape:groupmode="layer"
     inkscape:label="Image"
     id="g1"
     transform="translate(-810.05139,-145.41328)"><rect
       style="fill:#173c69;fill-opacity:1;stroke-width:1.00259"
       id="rect4318"
       width="431.89725"
       height="437.17343"
       x="810.05139"
       y="145.41328"
       ry="50.501072" /><g
       id="g4419"
       transform="matrix(1.1919592,0,0,1.1919592,-151.29299,-37.362723)"><path
         d="m 911.01459,298.98376 c 2.76737,4.646 6.83664,11.86244 10.11946,16.28532 1.63006,2.19615 2.63283,5.11922 2.63281,7.90625 -2e-5,2.71345 -1.62569,6.43903 -3.13086,8.63867 -2.89916,4.2368 -4.71573,7.17839 -7.16601,11.59179 -5.87912,12.43717 -11.2674,25.69208 -11.63477,39.60938 0,1.84015 0.0861,3.66172 0.25586,5.46094 2.7037,-2.25054 5.66439,-4.18348 8.82226,-5.75977 0.0291,-3.53961 0.70847,-11.10738 4.95118,-21.93555 5.33275,-13.61016 12.5696,-24.62762 18.41992,-29.94531 0.86296,-0.78439 1.71749,-1.51652 2.58398,-2.21875 0.75287,-0.61014 1.5145,-1.19804 2.30078,-1.77539 2.10829,-1.54807 4.38821,-3.02702 7.11524,-4.69922 -3.44371,-0.88267 -6.32895,-1.61435 -9.20508,-2.65625 -0.80542,-0.29177 -1.60961,-0.6086 -2.42578,-0.95898 -2.4734,-1.06183 -4.68617,-2.43252 -7.04883,-3.93945 -2.99531,-1.59287 -5.69453,-3.66114 -8.22656,-5.80665 -2.28778,-1.93854 -3.41149,-3.23337 -4.97656,-5.04101 -0.56271,-0.64993 -1.2971,-1.65378 -1.93339,-2.57001 -0.31815,-0.45811 -0.51536,-1.8207 -0.51536,-1.8207 0.50971,-2.19248 0.0238,-1.42701 -0.93829,-0.36531 z"
         style="fill:#357fb5;fill-opacity:1;stroke-width:0.124176"
         id="path4415"
         sodipodi:nodetypes="csssccccsssscsssssscc" /><path
         d="m 1002.4212,201.27979 c 0,0 -1.405,2.68262 -2.2655,3.86021 -2.31609,3.16921 -5.19737,5.07691 -8.65776,7.16593 -2.13245,1.28723 -4.4277,2.32629 -6.83399,3.09375 -4.83897,1.54315 -9.46037,1.86273 -15.15625,1.86134 -5.10339,3.2e-4 -10.1853,0.67585 -15.11914,2.00977 -13.77614,3.72373 -25.33427,12.23463 -33.14844,23.50586 -0.88625,1.27834 -1.724,2.59108 -2.51172,3.9375 -1.27459,2.51784 -3.32439,8.51437 -3.63587,11.3192 2.43014,-3.54986 6.44519,-10.34165 10.08509,-11.12584 0.66989,-0.14438 1.34711,-0.21687 2.02539,-0.2168 4.86769,2.6e-4 9.32155,3.71709 11.51953,9.61328 0,0 0.51685,1.60177 0.66441,2.03199 2.11459,4.2132 1.09927,18.95239 1.09927,18.95239 1.73423,-1.05622 3.74718,-1.61722 5.80273,-1.61719 3.36683,3.4e-4 7.16622,1.50232 9.21094,4.0625 -0.27574,-1.71546 -0.41424,-3.45193 -0.41406,-5.19141 3.2e-4,-5.22546 0.62684,-10.36784 3.01562,-14.95898 1.54011,-2.96163 9.20752,-16.08909 24.11388,-16.08844 11.48274,-6.5e-4 20.66277,8.59363 23.50717,13.30133 1.269,1.80174 3.5381,2.76503 4.4947,4.80898 2.5453,5.43757 2.7295,12.49663 2.7299,18.68125 -10e-5,1.63397 -0.9055,3.57313 -1.0898,5.1836 -0.495,4.33093 -3.6133,11.30077 -3.6133,11.30077 0,0 11.6183,-1.2662 22.1226,-3.43945 -0.088,-5.44239 -0.9765,-10.27448 -1.3672,-15.48242 -0.1266,-1.68745 -0.4,-3.47899 -0.5391,-5.16601 -1.171,-14.23324 -7.2298,-27.58366 -17.1035,-37.6875 5.9509,-2.49798 9.849,-8.51405 9.8496,-15.20117 2e-4,-1.66201 -0.2422,-3.31436 -0.7188,-4.9004 -8.4759,7.61016 -18.7801,6.98631 -19.0273,6.89063 v -0.002 -0.002 c 2.9226,-2.98812 4.559,-7.00186 4.5586,-11.18164 2e-4,-2.48214 -0.2243,-3.94093 -1.3342,-6.1611 -0.5431,-1.36545 -2.262,-3.15793 -2.262,-3.15793 z"
         style="fill:#3780b5;fill-opacity:1;stroke:none;stroke-width:0.377953"
         id="path4361"
         sodipodi:nodetypes="csscccsccsccccccccccccsccsccscccccccc" /><path
         d="m 1092.4276,264.53411 c -8.0799,12.33609 -21.2972,22.33394 -35.0156,27.08594 -10.8027,3.74201 -18.9073,6.13506 -29.9738,9.20466 -14.8552,4.12049 -29.27289,12.77834 -36.96173,23.96526 -4.90559,7.59123 -12.60704,20.87725 -10.55984,39.05485 1.59599,-7.1476 4.77048,-14.45153 13.36973,-21.19812 4.29962,-3.37329 10.21454,-6.4188 18.48454,-8.85889 22.2587,-6.56742 44.8125,-2.74607 62.9575,-17.1619 5.8944,-4.99879 10.0295,-10.21486 12.8535,-14.58399 7.7774,-11.06447 7.9165,-24.78645 4.8457,-37.50781 z"
         style="fill:#f49530;fill-opacity:1;stroke:none;stroke-width:0.463612"
         id="path4370"
         sodipodi:nodetypes="cssccssccc" /><path
         d="m 1074.4023,325.17327 c -6.5656,5.46354 -9.9349,5.78781 -21.1575,9.25733 -5.6113,1.73476 -10.7189,2.59578 -19.7035,3.56555 -8.9846,0.96976 -20.904,1.20031 -29.0211,5.34866 -5.11729,2.61522 -10.95636,7.09266 -13.15103,13.7458 2.66044,-0.10815 14.88493,-0.27004 14.88493,-0.27004 0,0 18.7111,-0.0418 28.8117,-0.0418 5.7745,0 11.5419,-1.94528 20.7064,-5.75219 14.9507,-6.62759 18.2581,-19.66522 18.6301,-25.85331 z"
         style="fill:#f4922e;fill-opacity:1;stroke:none;stroke-width:0.268532"
         id="path4383"
         sodipodi:nodetypes="csssccsccc" /><path
         style="fill:#ffffff;fill-opacity:1;stroke:none;stroke-width:0.378;stroke-dasharray:none;stroke-opacity:1"
         d="m 929.65311,415.03212 c 0,0 -6.68617,2.68354 -9.51606,4.6167 -3.01241,2.05784 -5.46467,4.99358 -5.46467,4.99358 0,0 0.89261,2.87053 3.29764,5.93576 2.28479,2.91198 4.52249,5.93576 4.52249,5.93576 0,0 3.06156,-5.94647 4.23983,-9.42185 1.66561,-4.91277 2.92077,-12.05995 2.92077,-12.05995 z"
         id="path4384"
         sodipodi:nodetypes="cscscsc" /><path
         d="m 977.61611,400.85784 -2.76238,14.10896 -2.78906,13.61718 c -0.01,0.0781 -0.0194,0.15627 -0.0293,0.23438 -0.43314,3.29442 -1.10515,6.5456 -2.00196,9.68555 -3.04889,10.68059 -8.53018,19.50048 -15.20898,24.47265 3.03643,1.13139 6.27829,2.02896 9.65039,2.67188 7.74275,1.47627 17.68423,1.63248 27.80469,-0.6035 6.50358,-1.43688 13.11769,-4.45869 18.12329,-8.50086 7.1521,-5.77558 12.0717,-11.74143 12.072,-24.9757 2e-4,-11.90002 -7.1459,-20.87555 -15.5469,-26.75586 -3.5834,-2.50822 -7.97327,-3.92882 -7.97327,-3.92882 z"
         style="fill:#ffffff;fill-opacity:1;stroke-width:0.389712"
         id="path4386"
         sodipodi:nodetypes="ccccccssscscc" /><path
         d="m 1060.1937,354.56055 c -2.6953,3.49233 -6.7672,5.52506 -11.0723,5.52734 0.082,0.84938 0.1363,1.70144 0.1622,2.55469 3e-4,17.86918 -12.4688,29.5653 -15.9395,31.6914 -5.5905,3.42544 -13.9429,5.7167 -23.2461,6.37696 -1.8356,0.13012 -3.6908,0.19542 -5.5488,0.19531 -1.8389,8e-5 -3.6751,-0.0639 -5.49223,-0.19141 1.03173,0.36044 4.64823,1.70604 7.68553,3.83203 8.401,5.88032 15.5471,14.85584 15.5469,26.75586 -3e-4,13.23427 -4.9201,19.19903 -12.0722,24.97461 -5.0056,4.04217 -11.61954,7.06508 -18.12312,8.50196 -6.1466,1.35801 -12.7923,2.06816 -18.35437,1.90156 4.21289,0.65518 9.03755,0.74878 13.30359,0.74883 44.7113,-2e-4 80.9569,-35.37571 80.9571,-79.01367 4e-4,-11.71034 -2.6661,-23.27436 -7.8067,-33.85547 z"
         style="fill:#3680b7;fill-opacity:1;stroke-width:0.37308"
         id="path4390"
         sodipodi:nodetypes="ccccsscsssscccc" /><path
         d="m 1027.4508,300.66968 c 0.385,0.42025 -24.4689,3.01273 -35.76882,6.66493 -12.55518,4.05793 -23.97942,13.11753 -32.16508,23.46617 -9.80336,12.39378 -15.10198,45.54972 -15.10198,45.54972 -9.66001,44.08683 -8.53793,42.00639 -9.60309,45.76473 -1.31933,4.6551 -2.21135,9.51052 -4.60157,13.76563 -1.63251,2.88885 -3.90261,6.5833 -6.44531,8.60547 -1.79303,1.42596 -4.69312,3.02667 -7.4707,3.29687 -2.77758,0.27019 -5.43288,-0.78962 -7.80469,-1.75 -1.18017,-0.47787 -3.10708,-2.2891 -4.19922,-4.11133 -1.09215,-1.82223 -1.34979,-3.65622 -1.64062,-5.68945 -0.7218,-5.0461 3.62802,-12.89556 6.13476,-15.97461 3.74679,-4.49688 8.44245,-8.13098 13.75391,-10.64453 0.88078,-0.43534 7.6737,-2.70384 8.58398,-3.07422 0.94115,-6.87309 4.24385,-23.16089 4.41993,-25.13672 -2.77769,0.51634 -12.65126,3.75179 -18.42774,6.42383 -5.83359,2.69846 -12.57515,7.46519 -17.38281,11.55274 -12.51365,10.77852 -20.2438,22.57543 -18.16602,41.47265 0.97934,6.79236 3.73238,13.20243 7.98828,18.59961 5.28055,5.65199 12.13046,9.64013 19.70508,11.47266 4.993,1.19863 10.18021,1.43206 15.27735,0.6875 8.63637,-1.31554 13.91018,-4.17426 20.28054,-8.10133 4.28629,-2.64233 8.63207,-6.82273 11.92063,-10.68188 5.53595,-6.4698 9.44726,-22.93164 9.44726,-22.93164 0,0 1.84868,-5.50743 3.11639,-12.8442 0.63386,-3.66839 1.12989,-7.94227 1.96023,-11.78988 0.83035,-3.84762 2.32164,-7.6976 4.34303,-9.60911 1.82555,-1.72631 5.08686,-1.36501 8.97529,-1.53787 3.88843,-0.17285 7.4618,-0.0319 7.4618,-0.0319 l 14.58859,-0.17335 h 2.5762 c 3.988,0.0556 8.8787,0.0904 12.1347,-1.11329 6.3102,-2.13956 11.856,-5.36939 16,-10.39453 4.144,-5.02515 6.719,-11.51251 6.9863,-18.56445 h -4.6445 -51.09568 -0.21289 -4.66602 l -4.01365,0.0666 c -0.0268,-4.21216 0.57018,-10.37846 1.3574,-15.44357 0.85383,-5.49368 2.38253,-10.98557 4.89844,-15.94336 3.11812,-6.14449 7.12153,-12.09411 12.36328,-16.56641 8.34302,-7.11834 29.77902,-15.1256 29.13702,-15.28149 z"
         style="fill:#3177ad;fill-opacity:1;stroke:#3177ad;stroke-width:0.266897;stroke-opacity:1"
         id="path4382"
         sodipodi:nodetypes="csscscsssssccccscccccscccsssccccsccccccssscc" /><path
         d="m 982.17065,243.27148 c -12.0094,0.37489 -18.73703,7.67529 -23.49238,14.41376 -4.69664,6.65529 -3.89111,16.13919 -3.75372,20.95734 1.28091,1.09769 2.07093,1.80599 3.64454,2.98633 1.57362,1.18033 6.48532,3.29642 6.48532,3.29642 l -1.42478,2.51217 c -1.22558,2.02463 -2.74739,3.34947 -5.95442,6.04492 -3.84398,3.2308 -8.00547,5.50658 -11.43425,5.375 -4.45628,-0.17101 -8.83235,-2.86654 -11.79983,-6.18037 -1.74585,-1.9497 -3.30573,-3.24257 -4.23939,-5.33641 0,0 3.68294,-4.56909 4.94034,-5.97185 1.98351,-2.21282 5.9465,-5.42348 5.9465,-5.42348 0,0 0.0754,-13.00985 -0.0645,-12.97656 0.18759,-6.20073 -5.58181,-16.76808 -11.02929,-17.26172 -4.18034,-0.37881 -8.78968,1.96203 -11.80078,6.31055 -5.12607,7.40287 -4.93826,14.54889 -4.60743,21.87695 -1.9386,2.63462 -4.19827,11.95434 -3.9414,16.03711 0.39192,6.22926 1.79192,14.3197 11.15234,20.16797 1.934,1.94846 4.42352,3.11225 6.71875,4.57617 2.36266,1.50693 4.57545,2.87776 7.04885,3.93959 3.73068,1.60159 7.22279,2.48544 11.63086,3.6153 -4.91461,3.01362 -8.37678,5.40001 -12,8.69336 -5.85032,5.31769 -13.08717,16.33515 -18.41992,29.94531 -6.03446,15.40105 -4.48438,21.45703 -4.48438,21.45703 3.79492,-1.49653 9.39161,-3.89384 13.65625,-5.55078 4.26465,-1.65694 7.19724,-2.57352 13.41016,-4.11133 3.03479,-10.76087 3.52379,-22.34924 7.98828,-32.64258 2.50436,-5.56151 4.20342,-9.20091 7.35547,-13.08789 6.49876,-8.01402 13.5749,-15.09926 23.26953,-20.41211 6.70169,-3.67266 15.25878,-6.45312 21.55469,-7.81054 3.36974,-0.72652 6.61724,-1.50639 9.73824,-1.94141 4.5789,-6.10251 4.7117,-13.5654 4.8086,-20.80469 0.068,-5.04638 -0.9065,-11.75243 -3.4442,-15.96748 -9.1748,-15.23856 -22.58161,-16.72516 -27.45811,-16.72588 z"
         style="fill:#fefefe;fill-opacity:1;stroke-width:0.378"
         id="path4409"
         sodipodi:nodetypes="cscsccssscsccsscscsscsscsccssscsscc" /><g
         id="g4417"
         transform="translate(484)"><ellipse
           style="fill:#163b65;fill-opacity:1;stroke:none;stroke-width:0.391267;stroke-dasharray:none;stroke-opacity:1"
           id="path4417"
           cx="498.75"
           cy="272.875"
           rx="9.375"
           ry="10.5" /><ellipse
           style="fill:#f2fafb;fill-opacity:1;stroke:none;stroke-width:0.378;stroke-dasharray:none;stroke-opacity:1"
           id="path4416"
           cx="495.625"
           cy="269.25"
           rx="3.25"
           ry="3.125" /></g><g
         id="g4418"
         transform="translate(482)"><ellipse
           style="fill:#163b65;fill-opacity:1;stroke:none;stroke-width:0.333535;stroke-dasharray:none;stroke-opacity:1"
           id="ellipse4417"
           cx="445.3125"
           cy="272.625"
           rx="6.8125"
           ry="10.5" /><ellipse
           style="fill:#f2fafb;fill-opacity:1;stroke:none;stroke-width:0.335646;stroke-dasharray:none;stroke-opacity:1"
           id="ellipse4418"
           cx="447.0625"
           cy="269.25"
           rx="2.5625"
           ry="3.125" /></g><path
         style="fill:#f7ce2c;fill-opacity:1;stroke:none;stroke-width:0.378;stroke-dasharray:none;stroke-opacity:1"
         d="m 930.7705,288.66249 c 0,0 13.55259,4.19395 17.12033,3.36243 3.53412,-0.82367 13.13332,-1.33735 13.13332,-1.33735 0,0 -7.51324,8.15699 -15.00809,8.41427 -7.11008,0.24407 -15.24556,-10.43935 -15.24556,-10.43935 z"
         id="path4419"
         sodipodi:nodetypes="cscsc" /><path
         style="fill:#f5942e;fill-opacity:1;stroke:none;stroke-width:0.436141;stroke-dasharray:none;stroke-opacity:1"
         d="m 929.84795,287.53223 c 2.08278,-2.55199 3.95287,-5.46969 6.47576,-7.56711 2.84016,-2.36117 5.62017,-5.35047 9.2305,-6.12963 1.90441,-0.411 3.09112,-0.53525 5.76907,0.93748 2.77966,1.52866 4.56599,3.9741 7.0671,5.84117 1.90834,1.42457 4.63559,2.92511 6.82669,4.35564 -4.43625,8.02037 -5.47199,6.4221 -11.06215,7.03835 -4.88359,0.53836 -9.03516,1.01589 -14.06694,0.87007 -3.01562,-0.0874 -5.43971,-0.86263 -7.85553,-2.58165 -1.18135,-0.94628 -2.3845,-2.76432 -2.3845,-2.76432 z"
         id="path4418"
         sodipodi:nodetypes="csssscsssc" /></g></g></svg>
